<svg xmlns="http://www.w3.org/2000/svg" width="134" height="134" viewBox="0 0 134 134"><defs><style>.a{fill:#4c9bde;}.b{fill:#fff;}</style></defs><g transform="translate(-317 -490)"><circle class="a" cx="67" cy="67" r="67" transform="translate(317 490)"/><path class="b" d="M383.31,615.954a4.637,4.637,0,0,0-4.632,4.632v22.147a1.025,1.025,0,0,1-2.051,0V609.7a5.436,5.436,0,0,0-5.43-5.43,5.367,5.367,0,0,0-3.919,1.612,5.49,5.49,0,0,0-1.511,3.838v33.012a1.025,1.025,0,0,1-2.051,0v-32.6a5.867,5.867,0,0,0-5.861-5.86,6,6,0,0,0-5.86,6.229v32.233a1.025,1.025,0,0,1-2.051,0v-26.4a5.436,5.436,0,0,0-5.43-5.43,5.566,5.566,0,0,0-5.431,5.776v40.06h12.059a16.539,16.539,0,0,1,12.525,5.736,1.025,1.025,0,1,1-1.552,1.34,14.492,14.492,0,0,0-10.973-5.025H338.058a1.028,1.028,0,0,1-.137-.014c-.018,0-.035,0-.052-.005a1.019,1.019,0,0,1-.245-.08l-.053-.029a1.031,1.031,0,0,1-.189-.132c-.008-.007-.018-.011-.026-.018l-5.085-4.778a9.657,9.657,0,0,0-13.474.187,2.514,2.514,0,0,0-.077,3.5l19.256,20.892c7.725,8.562,15.573,12.052,27.094,12.052a23.019,23.019,0,0,0,22.873-23.11v-46.44A4.66,4.66,0,0,0,383.31,615.954Z" transform="translate(30.951 -90.271)"/></g></svg>