<svg xmlns="http://www.w3.org/2000/svg" width="134" height="134" viewBox="0 0 134 134"><defs><style>.a{fill:#4c9bde;}.b{fill:#fff;}</style></defs><g transform="translate(-317 -490)"><circle class="a" cx="67" cy="67" r="67" transform="translate(317 490)"/><g transform="translate(139.164 -100.414)"><path class="b" d="M260.118,644.921V631.23a6.816,6.816,0,0,0-13.632,0v13.313h12.022A3.63,3.63,0,0,1,260.118,644.921Z"/><path class="b" d="M228.581,644.543v-13.83a5.7,5.7,0,1,0-11.394,0v17.042a14.416,14.416,0,0,1,9.082-3.212Z"/><path class="b" d="M268.51,658.78a8.389,8.389,0,0,1-7.258-4.2,12.723,12.723,0,0,1-11.789,7.977h-8.525a14.005,14.005,0,0,1,6.716,11.953v3.839a1.026,1.026,0,0,1-2.051,0v-3.839a11.966,11.966,0,0,0-11.953-11.953h-.183a1.026,1.026,0,0,1-1.025-1.026h0a1.025,1.025,0,0,1,1.025-1.025h16a10.668,10.668,0,0,0,10.655-10.656V648.2a1.611,1.611,0,0,0-1.61-1.609H226.269a12.408,12.408,0,0,0-9.471,4.391c-.172.2-.34.408-.5.621-.065.087-.127.177-.19.266-.156.221-.307.445-.448.675-.046.075-.089.152-.133.228-.144.247-.28.5-.406.752-.021.042-.044.083-.064.125-.143.3-.271.6-.39.908-.015.04-.032.079-.047.119-.116.312-.219.63-.31.95-.012.041-.024.082-.035.122q-.132.484-.225.978c-.008.042-.015.085-.023.128-.058.331-.105.665-.136,1,0,.039-.006.078-.009.117-.03.348-.048.7-.048,1.051,0,.844.043,1.678.109,2.506a31.374,31.374,0,0,0,31.229,28.832H248.9a25.979,25.979,0,0,0,25.95-25.949v-8.547A8.37,8.37,0,0,1,268.51,658.78Z"/><path class="b" d="M244.435,631.315a6.9,6.9,0,0,0-13.8,0v13.228h13.8Z"/><path class="b" d="M268.51,634.407a6.349,6.349,0,0,0-6.341,6.341v9.64a6.341,6.341,0,0,0,12.683,0v-9.64A6.349,6.349,0,0,0,268.51,634.407Z"/></g></g></svg>