<svg xmlns="http://www.w3.org/2000/svg" width="134" height="134" viewBox="0 0 134 134"><defs><style>.a{fill:#4c9bde;}.b{fill:#fff;}</style></defs><g transform="translate(-317 -490)"><circle class="a" cx="67" cy="67" r="67" transform="translate(317 490)"/><g transform="translate(-92.418 -86.204)"><path class="b" d="M466.661,648.12H476.9V636.881a8.269,8.269,0,0,1,2.6-6.015l3.924-27.925a5.816,5.816,0,1,0-11.518-1.619l-5.43,37.307a1.026,1.026,0,0,1-2.03,0l-5.453-37.412a5.816,5.816,0,1,0-11.519,1.614c1.505,11.23,2.644,19.241,3.476,25.091,2.108,14.817,2.465,17.34,2.526,27.825A15.228,15.228,0,0,1,466.661,648.12Z"/><path class="b" d="M499.752,660.633a8.3,8.3,0,0,1-6.92-3.726,11.478,11.478,0,0,1-10.738,7.46H477.98a13.168,13.168,0,0,1,6.126,11.118v3.592a1.025,1.025,0,1,1-2.051,0v-3.592a11.131,11.131,0,0,0-11.119-11.118,1.025,1.025,0,0,1-1.025-1.026h0a1.025,1.025,0,0,1,1.025-1.025h11.158a9.413,9.413,0,0,0,9.4-9.2c0-.071.011-.141.011-.212a2.725,2.725,0,0,0-.043-.426c-.005-.032,0-.067-.01-.1a2.739,2.739,0,0,0-2.684-2.212h-22.1a13.185,13.185,0,0,0-13.171,13.17h0a26.935,26.935,0,0,0,8.308,19.951,26.373,26.373,0,0,0,19.7,7.017C495.236,689.42,506,677.5,506,663.176v-5.4A8.275,8.275,0,0,1,499.752,660.633Z"/><path class="b" d="M499.752,637.2a6.256,6.256,0,0,0-6.249,6.249v8.8a4.919,4.919,0,0,1,.05.658c0,.052,0,.1,0,.157A6.247,6.247,0,0,0,506,652.334V643.45A6.256,6.256,0,0,0,499.752,637.2Z"/><path class="b" d="M483.182,630.975c-.091.031-.181.063-.27.1s-.178.073-.266.113-.183.085-.273.131-.158.082-.236.125c-.1.055-.192.114-.286.174-.066.043-.133.084-.2.129-.1.07-.2.145-.293.22-.055.043-.112.085-.167.131a6.237,6.237,0,0,0-2.238,4.785V648.12h9.811a4.76,4.76,0,0,1,2.687.827V636.881a6.258,6.258,0,0,0-5.611-6.216q-.315-.031-.638-.032c-.2,0-.4.011-.6.03-.079.007-.157.021-.236.032-.115.015-.23.03-.342.052-.094.018-.187.041-.279.063s-.192.046-.286.074S483.275,630.942,483.182,630.975Z"/></g></g></svg>