<svg xmlns="http://www.w3.org/2000/svg" width="153.013" height="245.942" viewBox="0 0 153.013 245.942"><defs><style>.a{fill:#4c9bde;}</style></defs><g transform="translate(-416.254 -542.239)"><g transform="translate(416.254 542.239)"><path class="a" d="M497.68,731.8h26.751V702.449a21.6,21.6,0,0,1,6.786-15.711L541.466,613.8a15.19,15.19,0,1,0-30.084-4.229L497.2,707.015a2.679,2.679,0,0,1-5.3,0L477.654,609.3a15.19,15.19,0,1,0-30.087,4.216c3.931,29.332,6.906,50.256,9.079,65.536,5.506,38.7,6.438,45.291,6.6,72.677A39.775,39.775,0,0,1,497.68,731.8Z" transform="translate(-447.418 -596.204)"/><path class="a" d="M574.324,677.5a21.666,21.666,0,0,1-18.075-9.732A29.981,29.981,0,0,1,528.2,687.25H517.457a34.394,34.394,0,0,1,16,29.04v9.382a2.679,2.679,0,1,1-5.357,0V716.29a29.075,29.075,0,0,0-29.042-29.04,2.678,2.678,0,0,1-2.677-2.68h0a2.678,2.678,0,0,1,2.677-2.677H528.2a24.586,24.586,0,0,0,24.544-24.019c.005-.185.029-.368.029-.554a7.12,7.12,0,0,0-.112-1.113c-.013-.083-.01-.175-.026-.259a7.154,7.154,0,0,0-7.01-5.778H487.892a34.439,34.439,0,0,0-34.4,34.4h0c0,20.488,7.705,39,21.7,52.111a68.885,68.885,0,0,0,51.445,18.328c35.893-2.322,64.008-33.454,64.008-70.87v-14.1A21.614,21.614,0,0,1,574.324,677.5Z" transform="translate(-437.63 -509.214)"/><path class="a" d="M509.825,637.2A16.341,16.341,0,0,0,493.5,653.523v22.985a12.848,12.848,0,0,1,.131,1.719c0,.136-.008.272-.01.41a16.316,16.316,0,0,0,32.521-1.909v-23.2A16.341,16.341,0,0,0,509.825,637.2Z" transform="translate(-373.132 -530.121)"/><path class="a" d="M490,631.526c-.238.081-.473.165-.705.256s-.465.191-.695.3-.478.222-.713.342c-.206.107-.413.214-.616.327-.253.144-.5.3-.747.454-.172.112-.348.219-.52.337-.261.183-.515.379-.765.575-.144.112-.292.222-.436.342a16.292,16.292,0,0,0-5.845,12.5v29.356H504.58a12.431,12.431,0,0,1,7.018,2.16V646.952a16.345,16.345,0,0,0-14.656-16.236q-.823-.082-1.667-.083c-.525,0-1.045.029-1.557.078-.206.018-.41.055-.616.083-.3.039-.6.078-.893.136-.245.047-.488.107-.729.164s-.5.12-.747.193S490.24,631.44,490,631.526Z" transform="translate(-396.584 -540.708)"/></g></g></svg>